<!-- <svg id="visual" viewBox="0 0 960 540" width="960" height="540" xmlns="http://www.w3.org/2000/svg" xmlns:xlink="http://www.w3.org/1999/xlink" version="1.1"><path d="M0 320L22.8 321.2C45.7 322.3 91.3 324.7 137 338.7C182.7 352.7 228.3 378.3 274 385.8C319.7 393.3 365.3 382.7 411.2 382.3C457 382 503 392 548.8 397.2C594.7 402.3 640.3 402.7 686 392.8C731.7 383 777.3 363 823 351.7C868.7 340.3 914.3 337.7 937.2 336.3L960 335L960 541L937.2 541C914.3 541 868.7 541 823 541C777.3 541 731.7 541 686 541C640.3 541 594.7 541 548.8 541C503 541 457 541 411.2 541C365.3 541 319.7 541 274 541C228.3 541 182.7 541 137 541C91.3 541 45.7 541 22.8 541L0 541Z" fill="#e879f9"></path><path d="M0 404L22.8 405.7C45.7 407.3 91.3 410.7 137 405C182.7 399.3 228.3 384.7 274 375.5C319.7 366.3 365.3 362.7 411.2 367.7C457 372.7 503 386.3 548.8 396.5C594.7 406.7 640.3 413.3 686 407.8C731.7 402.3 777.3 384.7 823 377C868.7 369.3 914.3 371.7 937.2 372.8L960 374L960 541L937.2 541C914.3 541 868.7 541 823 541C777.3 541 731.7 541 686 541C640.3 541 594.7 541 548.8 541C503 541 457 541 411.2 541C365.3 541 319.7 541 274 541C228.3 541 182.7 541 137 541C91.3 541 45.7 541 22.8 541L0 541Z" fill="#d664e6"></path><path d="M0 430L22.8 433.7C45.7 437.3 91.3 444.7 137 443.7C182.7 442.7 228.3 433.3 274 428.7C319.7 424 365.3 424 411.2 420.3C457 416.7 503 409.3 548.8 414.5C594.7 419.7 640.3 437.3 686 442.3C731.7 447.3 777.3 439.7 823 430.2C868.7 420.7 914.3 409.3 937.2 403.7L960 398L960 541L937.2 541C914.3 541 868.7 541 823 541C777.3 541 731.7 541 686 541C640.3 541 594.7 541 548.8 541C503 541 457 541 411.2 541C365.3 541 319.7 541 274 541C228.3 541 182.7 541 137 541C91.3 541 45.7 541 22.8 541L0 541Z" fill="#c54fd4"></path><path d="M0 470L22.8 471.8C45.7 473.7 91.3 477.3 137 473.3C182.7 469.3 228.3 457.7 274 456.7C319.7 455.7 365.3 465.3 411.2 465.7C457 466 503 457 548.8 456.2C594.7 455.3 640.3 462.7 686 465.7C731.7 468.7 777.3 467.3 823 468.5C868.7 469.7 914.3 473.3 937.2 475.2L960 477L960 541L937.2 541C914.3 541 868.7 541 823 541C777.3 541 731.7 541 686 541C640.3 541 594.7 541 548.8 541C503 541 457 541 411.2 541C365.3 541 319.7 541 274 541C228.3 541 182.7 541 137 541C91.3 541 45.7 541 22.8 541L0 541Z" fill="#b338c1"></path><path d="M0 473L22.8 475C45.7 477 91.3 481 137 482.8C182.7 484.7 228.3 484.3 274 485.3C319.7 486.3 365.3 488.7 411.2 490.5C457 492.3 503 493.7 548.8 494.5C594.7 495.3 640.3 495.7 686 499C731.7 502.3 777.3 508.7 823 507.5C868.7 506.3 914.3 497.7 937.2 493.3L960 489L960 541L937.2 541C914.3 541 868.7 541 823 541C777.3 541 731.7 541 686 541C640.3 541 594.7 541 548.8 541C503 541 457 541 411.2 541C365.3 541 319.7 541 274 541C228.3 541 182.7 541 137 541C91.3 541 45.7 541 22.8 541L0 541Z" fill="#a21caf"></path></svg> -->
<!-- <svg id="visual" viewBox="0 0 960 540" width="960" height="540" xmlns="http://www.w3.org/2000/svg" xmlns:xlink="http://www.w3.org/1999/xlink" version="1.1"><path d="M0 344L20 343.3C40 342.7 80 341.3 120 333.5C160 325.7 200 311.3 240 313.7C280 316 320 335 360 349.8C400 364.7 440 375.3 480 384.2C520 393 560 400 600 397C640 394 680 381 720 365.5C760 350 800 332 840 327.2C880 322.3 920 330.7 940 334.8L960 339L960 541L940 541C920 541 880 541 840 541C800 541 760 541 720 541C680 541 640 541 600 541C560 541 520 541 480 541C440 541 400 541 360 541C320 541 280 541 240 541C200 541 160 541 120 541C80 541 40 541 20 541L0 541Z" fill="#e879f9"></path><path d="M0 410L20 398.7C40 387.3 80 364.7 120 361.5C160 358.3 200 374.7 240 387.8C280 401 320 411 360 413.5C400 416 440 411 480 411.2C520 411.3 560 416.7 600 420.7C640 424.7 680 427.3 720 425.2C760 423 800 416 840 403.2C880 390.3 920 371.7 940 362.3L960 353L960 541L940 541C920 541 880 541 840 541C800 541 760 541 720 541C680 541 640 541 600 541C560 541 520 541 480 541C440 541 400 541 360 541C320 541 280 541 240 541C200 541 160 541 120 541C80 541 40 541 20 541L0 541Z" fill="#d664e6"></path><path d="M0 393L20 393.5C40 394 80 395 120 398.2C160 401.3 200 406.7 240 408.5C280 410.3 320 408.7 360 410.5C400 412.3 440 417.7 480 422.7C520 427.7 560 432.3 600 431.3C640 430.3 680 423.7 720 429.5C760 435.3 800 453.7 840 454.2C880 454.7 920 437.3 940 428.7L960 420L960 541L940 541C920 541 880 541 840 541C800 541 760 541 720 541C680 541 640 541 600 541C560 541 520 541 480 541C440 541 400 541 360 541C320 541 280 541 240 541C200 541 160 541 120 541C80 541 40 541 20 541L0 541Z" fill="#c54fd4"></path><path d="M0 431L20 441.3C40 451.7 80 472.3 120 472C160 471.7 200 450.3 240 450.7C280 451 320 473 360 481.7C400 490.3 440 485.7 480 482.8C520 480 560 479 600 480.3C640 481.7 680 485.3 720 482.7C760 480 800 471 840 462C880 453 920 444 940 439.5L960 435L960 541L940 541C920 541 880 541 840 541C800 541 760 541 720 541C680 541 640 541 600 541C560 541 520 541 480 541C440 541 400 541 360 541C320 541 280 541 240 541C200 541 160 541 120 541C80 541 40 541 20 541L0 541Z" fill="#b338c1"></path><path d="M0 488L20 488.3C40 488.7 80 489.3 120 487.5C160 485.7 200 481.3 240 481.3C280 481.3 320 485.7 360 485.8C400 486 440 482 480 487.7C520 493.3 560 508.7 600 507.8C640 507 680 490 720 482.5C760 475 800 477 840 475.3C880 473.7 920 468.3 940 465.7L960 463L960 541L940 541C920 541 880 541 840 541C800 541 760 541 720 541C680 541 640 541 600 541C560 541 520 541 480 541C440 541 400 541 360 541C320 541 280 541 240 541C200 541 160 541 120 541C80 541 40 541 20 541L0 541Z" fill="#a21caf"></path></svg> -->
<svg id="visual" viewBox="0 0 960 540" width="960" height="540" xmlns="http://www.w3.org/2000/svg" xmlns:xlink="http://www.w3.org/1999/xlink" version="1.1"><path d="M0 312L20 321C40 330 80 348 120 353.2C160 358.3 200 350.7 240 341.3C280 332 320 321 360 317.3C400 313.7 440 317.3 480 325.8C520 334.3 560 347.7 600 348.2C640 348.7 680 336.3 720 337C760 337.7 800 351.3 840 347.2C880 343 920 321 940 310L960 299L960 541L940 541C920 541 880 541 840 541C800 541 760 541 720 541C680 541 640 541 600 541C560 541 520 541 480 541C440 541 400 541 360 541C320 541 280 541 240 541C200 541 160 541 120 541C80 541 40 541 20 541L0 541Z" fill="#818cf8"></path><path d="M0 337L20 350.2C40 363.3 80 389.7 120 402C160 414.3 200 412.7 240 405.3C280 398 320 385 360 381.3C400 377.7 440 383.3 480 375C520 366.7 560 344.3 600 332C640 319.7 680 317.3 720 327.3C760 337.3 800 359.7 840 366.2C880 372.7 920 363.3 940 358.7L960 354L960 541L940 541C920 541 880 541 840 541C800 541 760 541 720 541C680 541 640 541 600 541C560 541 520 541 480 541C440 541 400 541 360 541C320 541 280 541 240 541C200 541 160 541 120 541C80 541 40 541 20 541L0 541Z" fill="#7178ed"></path><path d="M0 362L20 370.3C40 378.7 80 395.3 120 405.7C160 416 200 420 240 423C280 426 320 428 360 420.8C400 413.7 440 397.3 480 399.3C520 401.3 560 421.7 600 420.8C640 420 680 398 720 394C760 390 800 404 840 414.8C880 425.7 920 433.3 940 437.2L960 441L960 541L940 541C920 541 880 541 840 541C800 541 760 541 720 541C680 541 640 541 600 541C560 541 520 541 480 541C440 541 400 541 360 541C320 541 280 541 240 541C200 541 160 541 120 541C80 541 40 541 20 541L0 541Z" fill="#6163e2"></path><path d="M0 443L20 449.3C40 455.7 80 468.3 120 465.3C160 462.3 200 443.7 240 433.7C280 423.7 320 422.3 360 427.3C400 432.3 440 443.7 480 447C520 450.3 560 445.7 600 437.8C640 430 680 419 720 414.2C760 409.3 800 410.7 840 422.2C880 433.7 920 455.3 940 466.2L960 477L960 541L940 541C920 541 880 541 840 541C800 541 760 541 720 541C680 541 640 541 600 541C560 541 520 541 480 541C440 541 400 541 360 541C320 541 280 541 240 541C200 541 160 541 120 541C80 541 40 541 20 541L0 541Z" fill="#524ed6"></path><path d="M0 462L20 463.2C40 464.3 80 466.7 120 466.7C160 466.7 200 464.3 240 469C280 473.7 320 485.3 360 485.3C400 485.3 440 473.7 480 475.2C520 476.7 560 491.3 600 495.5C640 499.7 680 493.3 720 488.3C760 483.3 800 479.7 840 476.5C880 473.3 920 470.7 940 469.3L960 468L960 541L940 541C920 541 880 541 840 541C800 541 760 541 720 541C680 541 640 541 600 541C560 541 520 541 480 541C440 541 400 541 360 541C320 541 280 541 240 541C200 541 160 541 120 541C80 541 40 541 20 541L0 541Z" fill="#4338ca"></path></svg>
