<svg id="visual" viewBox="0 0 960 540" width="960" height="540" xmlns="http://www.w3.org/2000/svg" xmlns:xlink="http://www.w3.org/1999/xlink" version="1.1"><path d="M0 363L20 373C40 383 80 403 120 389.5C160 376 200 329 240 320C280 311 320 340 360 353.3C400 366.7 440 364.3 480 382.8C520 401.3 560 440.7 600 438.5C640 436.3 680 392.7 720 371.7C760 350.7 800 352.3 840 369.2C880 386 920 418 940 434L960 450L960 0L940 0C920 0 880 0 840 0C800 0 760 0 720 0C680 0 640 0 600 0C560 0 520 0 480 0C440 0 400 0 360 0C320 0 280 0 240 0C200 0 160 0 120 0C80 0 40 0 20 0L0 0Z" fill="#4338ca"></path><path d="M0 336L20 346C40 356 80 376 120 380C160 384 200 372 240 342.5C280 313 320 266 360 248.5C400 231 440 243 480 259.7C520 276.3 560 297.7 600 317.7C640 337.7 680 356.3 720 343C760 329.7 800 284.3 840 276.7C880 269 920 299 940 314L960 329L960 0L940 0C920 0 880 0 840 0C800 0 760 0 720 0C680 0 640 0 600 0C560 0 520 0 480 0C440 0 400 0 360 0C320 0 280 0 240 0C200 0 160 0 120 0C80 0 40 0 20 0L0 0Z" fill="#524ed6"></path><path d="M0 317L20 315.5C40 314 80 311 120 293.8C160 276.7 200 245.3 240 221.3C280 197.3 320 180.7 360 190.2C400 199.7 440 235.3 480 257.8C520 280.3 560 289.7 600 275C640 260.3 680 221.7 720 203.7C760 185.7 800 188.3 840 189.8C880 191.3 920 191.7 940 191.8L960 192L960 0L940 0C920 0 880 0 840 0C800 0 760 0 720 0C680 0 640 0 600 0C560 0 520 0 480 0C440 0 400 0 360 0C320 0 280 0 240 0C200 0 160 0 120 0C80 0 40 0 20 0L0 0Z" fill="#6163e2"></path><path d="M0 114L20 119.5C40 125 80 136 120 147.7C160 159.3 200 171.7 240 171.2C280 170.7 320 157.3 360 164.5C400 171.7 440 199.3 480 193.7C520 188 560 149 600 132.3C640 115.7 680 121.3 720 123.5C760 125.7 800 124.3 840 133.7C880 143 920 163 940 173L960 183L960 0L940 0C920 0 880 0 840 0C800 0 760 0 720 0C680 0 640 0 600 0C560 0 520 0 480 0C440 0 400 0 360 0C320 0 280 0 240 0C200 0 160 0 120 0C80 0 40 0 20 0L0 0Z" fill="#7178ed"></path><path d="M0 132L20 115.8C40 99.7 80 67.3 120 61.5C160 55.7 200 76.3 240 92.5C280 108.7 320 120.3 360 117.5C400 114.7 440 97.3 480 100C520 102.7 560 125.3 600 133.2C640 141 680 134 720 133.2C760 132.3 800 137.7 840 121.3C880 105 920 67 940 48L960 29L960 0L940 0C920 0 880 0 840 0C800 0 760 0 720 0C680 0 640 0 600 0C560 0 520 0 480 0C440 0 400 0 360 0C320 0 280 0 240 0C200 0 160 0 120 0C80 0 40 0 20 0L0 0Z" fill="#818cf8"></path></svg>
