<!-- <svg id="visual" viewBox="0 0 960 540" width="960" height="540" xmlns="http://www.w3.org/2000/svg" xmlns:xlink="http://www.w3.org/1999/xlink" version="1.1"><path d="M0 141L14.5 151C29 161 58 181 87.2 182.8C116.3 184.7 145.7 168.3 174.8 162C204 155.7 233 159.3 262 157.5C291 155.7 320 148.3 349 147.5C378 146.7 407 152.3 436.2 160.5C465.3 168.7 494.7 179.3 523.8 191C553 202.7 582 215.3 611 205.5C640 195.7 669 163.3 698 156.2C727 149 756 167 785.2 164.2C814.3 161.3 843.7 137.7 872.8 136.7C902 135.7 931 157.3 945.5 168.2L960 179L960 0L945.5 0C931 0 902 0 872.8 0C843.7 0 814.3 0 785.2 0C756 0 727 0 698 0C669 0 640 0 611 0C582 0 553 0 523.8 0C494.7 0 465.3 0 436.2 0C407 0 378 0 349 0C320 0 291 0 262 0C233 0 204 0 174.8 0C145.7 0 116.3 0 87.2 0C58 0 29 0 14.5 0L0 0Z" fill="#a21caf"></path><path d="M0 217L14.5 236.8C29 256.7 58 296.3 87.2 306.2C116.3 316 145.7 296 174.8 281.5C204 267 233 258 262 252.7C291 247.3 320 245.7 349 237.7C378 229.7 407 215.3 436.2 226.2C465.3 237 494.7 273 523.8 289.2C553 305.3 582 301.7 611 289C640 276.3 669 254.7 698 246.5C727 238.3 756 243.7 785.2 244.7C814.3 245.7 843.7 242.3 872.8 250.5C902 258.7 931 278.3 945.5 288.2L960 298L960 177L945.5 166.2C931 155.3 902 133.7 872.8 134.7C843.7 135.7 814.3 159.3 785.2 162.2C756 165 727 147 698 154.2C669 161.3 640 193.7 611 203.5C582 213.3 553 200.7 523.8 189C494.7 177.3 465.3 166.7 436.2 158.5C407 150.3 378 144.7 349 145.5C320 146.3 291 153.7 262 155.5C233 157.3 204 153.7 174.8 160C145.7 166.3 116.3 182.7 87.2 180.8C58 179 29 159 14.5 149L0 139Z" fill="#b338c1"></path><path d="M0 357L14.5 366C29 375 58 393 87.2 403C116.3 413 145.7 415 174.8 414.2C204 413.3 233 409.7 262 402.5C291 395.3 320 384.7 349 374.8C378 365 407 356 436.2 360.5C465.3 365 494.7 383 523.8 387.5C553 392 582 383 611 386.5C640 390 669 406 698 406C727 406 756 390 785.2 383.7C814.3 377.3 843.7 380.7 872.8 386C902 391.3 931 398.7 945.5 402.3L960 406L960 296L945.5 286.2C931 276.3 902 256.7 872.8 248.5C843.7 240.3 814.3 243.7 785.2 242.7C756 241.7 727 236.3 698 244.5C669 252.7 640 274.3 611 287C582 299.7 553 303.3 523.8 287.2C494.7 271 465.3 235 436.2 224.2C407 213.3 378 227.7 349 235.7C320 243.7 291 245.3 262 250.7C233 256 204 265 174.8 279.5C145.7 294 116.3 314 87.2 304.2C58 294.3 29 254.7 14.5 234.8L0 215Z" fill="#c54fd4"></path><path d="M0 465L14.5 466C29 467 58 469 87.2 473.5C116.3 478 145.7 485 174.8 482.3C204 479.7 233 467.3 262 462.8C291 458.3 320 461.7 349 461.7C378 461.7 407 458.3 436.2 460.2C465.3 462 494.7 469 523.8 469.8C553 470.7 582 465.3 611 462.7C640 460 669 460 698 460C727 460 756 460 785.2 463.7C814.3 467.3 843.7 474.7 872.8 474.7C902 474.7 931 467.3 945.5 463.7L960 460L960 404L945.5 400.3C931 396.7 902 389.3 872.8 384C843.7 378.7 814.3 375.3 785.2 381.7C756 388 727 404 698 404C669 404 640 388 611 384.5C582 381 553 390 523.8 385.5C494.7 381 465.3 363 436.2 358.5C407 354 378 363 349 372.8C320 382.7 291 393.3 262 400.5C233 407.7 204 411.3 174.8 412.2C145.7 413 116.3 411 87.2 401C58 391 29 373 14.5 364L0 355Z" fill="#d664e6"></path><path d="M0 541L14.5 541C29 541 58 541 87.2 541C116.3 541 145.7 541 174.8 541C204 541 233 541 262 541C291 541 320 541 349 541C378 541 407 541 436.2 541C465.3 541 494.7 541 523.8 541C553 541 582 541 611 541C640 541 669 541 698 541C727 541 756 541 785.2 541C814.3 541 843.7 541 872.8 541C902 541 931 541 945.5 541L960 541L960 458L945.5 461.7C931 465.3 902 472.7 872.8 472.7C843.7 472.7 814.3 465.3 785.2 461.7C756 458 727 458 698 458C669 458 640 458 611 460.7C582 463.3 553 468.7 523.8 467.8C494.7 467 465.3 460 436.2 458.2C407 456.3 378 459.7 349 459.7C320 459.7 291 456.3 262 460.8C233 465.3 204 477.7 174.8 480.3C145.7 483 116.3 476 87.2 471.5C58 467 29 465 14.5 464L0 463Z" fill="#e879f9"></path></svg> -->
<svg id="visual" viewBox="0 0 960 540" width="960" height="540" xmlns="http://www.w3.org/2000/svg" xmlns:xlink="http://www.w3.org/1999/xlink" version="1.1"><path d="M0 93L14.5 88.5C29 84 58 75 87.2 70.5C116.3 66 145.7 66 174.8 72.3C204 78.7 233 91.3 262 96.7C291 102 320 100 349 94.5C378 89 407 80 436.2 85.5C465.3 91 494.7 111 523.8 109.2C553 107.3 582 83.7 611 81.8C640 80 669 100 698 109C727 118 756 116 785.2 116.8C814.3 117.7 843.7 121.3 872.8 118.7C902 116 931 107 945.5 102.5L960 98L960 0L945.5 0C931 0 902 0 872.8 0C843.7 0 814.3 0 785.2 0C756 0 727 0 698 0C669 0 640 0 611 0C582 0 553 0 523.8 0C494.7 0 465.3 0 436.2 0C407 0 378 0 349 0C320 0 291 0 262 0C233 0 204 0 174.8 0C145.7 0 116.3 0 87.2 0C58 0 29 0 14.5 0L0 0Z" fill="#4338ca"></path><path d="M0 136L14.5 138.7C29 141.3 58 146.7 87.2 149.3C116.3 152 145.7 152 174.8 156.5C204 161 233 170 262 174.5C291 179 320 179 349 168.2C378 157.3 407 135.7 436.2 146.5C465.3 157.3 494.7 200.7 523.8 205.2C553 209.7 582 175.3 611 168.2C640 161 669 181 698 187.3C727 193.7 756 186.3 785.2 185.3C814.3 184.3 843.7 189.7 872.8 192.3C902 195 931 195 945.5 195L960 195L960 96L945.5 100.5C931 105 902 114 872.8 116.7C843.7 119.3 814.3 115.7 785.2 114.8C756 114 727 116 698 107C669 98 640 78 611 79.8C582 81.7 553 105.3 523.8 107.2C494.7 109 465.3 89 436.2 83.5C407 78 378 87 349 92.5C320 98 291 100 262 94.7C233 89.3 204 76.7 174.8 70.3C145.7 64 116.3 64 87.2 68.5C58 73 29 82 14.5 86.5L0 91Z" fill="#524ed6"></path><path d="M0 195L14.5 203.2C29 211.3 58 227.7 87.2 230.5C116.3 233.3 145.7 222.7 174.8 221.8C204 221 233 230 262 233.5C291 237 320 235 349 222.3C378 209.7 407 186.3 436.2 195.3C465.3 204.3 494.7 245.7 523.8 254.7C553 263.7 582 240.3 611 239.5C640 238.7 669 260.3 698 264C727 267.7 756 253.3 785.2 244.3C814.3 235.3 843.7 231.7 872.8 230.7C902 229.7 931 231.3 945.5 232.2L960 233L960 193L945.5 193C931 193 902 193 872.8 190.3C843.7 187.7 814.3 182.3 785.2 183.3C756 184.3 727 191.7 698 185.3C669 179 640 159 611 166.2C582 173.3 553 207.7 523.8 203.2C494.7 198.7 465.3 155.3 436.2 144.5C407 133.7 378 155.3 349 166.2C320 177 291 177 262 172.5C233 168 204 159 174.8 154.5C145.7 150 116.3 150 87.2 147.3C58 144.7 29 139.3 14.5 136.7L0 134Z" fill="#6163e2"></path><path d="M0 379L14.5 375.3C29 371.7 58 364.3 87.2 375.2C116.3 386 145.7 415 174.8 420.5C204 426 233 408 262 395.3C291 382.7 320 375.3 349 354.7C378 334 407 300 436.2 300C465.3 300 494.7 334 523.8 349.2C553 364.3 582 360.7 611 378.7C640 396.7 669 436.3 698 446.3C727 456.3 756 436.7 785.2 409.7C814.3 382.7 843.7 348.3 872.8 356.3C902 364.3 931 414.7 945.5 439.8L960 465L960 231L945.5 230.2C931 229.3 902 227.7 872.8 228.7C843.7 229.7 814.3 233.3 785.2 242.3C756 251.3 727 265.7 698 262C669 258.3 640 236.7 611 237.5C582 238.3 553 261.7 523.8 252.7C494.7 243.7 465.3 202.3 436.2 193.3C407 184.3 378 207.7 349 220.3C320 233 291 235 262 231.5C233 228 204 219 174.8 219.8C145.7 220.7 116.3 231.3 87.2 228.5C58 225.7 29 209.3 14.5 201.2L0 193Z" fill="#7178ed"></path><path d="M0 541L14.5 541C29 541 58 541 87.2 541C116.3 541 145.7 541 174.8 541C204 541 233 541 262 541C291 541 320 541 349 541C378 541 407 541 436.2 541C465.3 541 494.7 541 523.8 541C553 541 582 541 611 541C640 541 669 541 698 541C727 541 756 541 785.2 541C814.3 541 843.7 541 872.8 541C902 541 931 541 945.5 541L960 541L960 463L945.5 437.8C931 412.7 902 362.3 872.8 354.3C843.7 346.3 814.3 380.7 785.2 407.7C756 434.7 727 454.3 698 444.3C669 434.3 640 394.7 611 376.7C582 358.7 553 362.3 523.8 347.2C494.7 332 465.3 298 436.2 298C407 298 378 332 349 352.7C320 373.3 291 380.7 262 393.3C233 406 204 424 174.8 418.5C145.7 413 116.3 384 87.2 373.2C58 362.3 29 369.7 14.5 373.3L0 377Z" fill="#818cf8"></path></svg>
