<!-- Credit: Haikei (https://app.haikei.app/) -->
<!-- Ratio 16:9, scaled with `background-size: cover;` -->
<svg id="visual" viewBox="0 0 960 540" width="960" height="540" xmlns="http://www.w3.org/2000/svg" xmlns:xlink="http://www.w3.org/1999/xlink" version="1.1"><rect x="0" y="0" width="960" height="540" fill="#FFFFFF"></rect><path d="M0 329L22.8 333C45.7 337 91.3 345 137 356.8C182.7 368.7 228.3 384.3 274 391.8C319.7 399.3 365.3 398.7 411.2 387.2C457 375.7 503 353.3 548.8 353.8C594.7 354.3 640.3 377.7 686 379.3C731.7 381 777.3 361 823 356C868.7 351 914.3 361 937.2 366L960 371L960 541L937.2 541C914.3 541 868.7 541 823 541C777.3 541 731.7 541 686 541C640.3 541 594.7 541 548.8 541C503 541 457 541 411.2 541C365.3 541 319.7 541 274 541C228.3 541 182.7 541 137 541C91.3 541 45.7 541 22.8 541L0 541Z" fill="#e879f9"></path><path d="M0 381L22.8 379.2C45.7 377.3 91.3 373.7 137 374.3C182.7 375 228.3 380 274 389C319.7 398 365.3 411 411.2 417C457 423 503 422 548.8 415.8C594.7 409.7 640.3 398.3 686 396.7C731.7 395 777.3 403 823 406C868.7 409 914.3 407 937.2 406L960 405L960 541L937.2 541C914.3 541 868.7 541 823 541C777.3 541 731.7 541 686 541C640.3 541 594.7 541 548.8 541C503 541 457 541 411.2 541C365.3 541 319.7 541 274 541C228.3 541 182.7 541 137 541C91.3 541 45.7 541 22.8 541L0 541Z" fill="#d664e6"></path><path d="M0 431L22.8 428C45.7 425 91.3 419 137 422.5C182.7 426 228.3 439 274 443.2C319.7 447.3 365.3 442.7 411.2 438.5C457 434.3 503 430.7 548.8 427C594.7 423.3 640.3 419.7 686 425C731.7 430.3 777.3 444.7 823 443.3C868.7 442 914.3 425 937.2 416.5L960 408L960 541L937.2 541C914.3 541 868.7 541 823 541C777.3 541 731.7 541 686 541C640.3 541 594.7 541 548.8 541C503 541 457 541 411.2 541C365.3 541 319.7 541 274 541C228.3 541 182.7 541 137 541C91.3 541 45.7 541 22.8 541L0 541Z" fill="#c54fd4"></path><path d="M0 441L22.8 439.8C45.7 438.7 91.3 436.3 137 440C182.7 443.7 228.3 453.3 274 453.3C319.7 453.3 365.3 443.7 411.2 444.5C457 445.3 503 456.7 548.8 457.7C594.7 458.7 640.3 449.3 686 452C731.7 454.7 777.3 469.3 823 473.7C868.7 478 914.3 472 937.2 469L960 466L960 541L937.2 541C914.3 541 868.7 541 823 541C777.3 541 731.7 541 686 541C640.3 541 594.7 541 548.8 541C503 541 457 541 411.2 541C365.3 541 319.7 541 274 541C228.3 541 182.7 541 137 541C91.3 541 45.7 541 22.8 541L0 541Z" fill="#b338c1"></path><path d="M0 491L22.8 491.5C45.7 492 91.3 493 137 492.7C182.7 492.3 228.3 490.7 274 492C319.7 493.3 365.3 497.7 411.2 500.3C457 503 503 504 548.8 501.7C594.7 499.3 640.3 493.7 686 492.8C731.7 492 777.3 496 823 500C868.7 504 914.3 508 937.2 510L960 512L960 541L937.2 541C914.3 541 868.7 541 823 541C777.3 541 731.7 541 686 541C640.3 541 594.7 541 548.8 541C503 541 457 541 411.2 541C365.3 541 319.7 541 274 541C228.3 541 182.7 541 137 541C91.3 541 45.7 541 22.8 541L0 541Z" fill="#a21caf"></path></svg>
